<svg width="24" height="24" viewBox="0 0 24 24" fill="none" xmlns="http://www.w3.org/2000/svg">
<path d="M18.4395 5.55861C17.7645 6.72501 17.0875 7.89041 16.4121 9.05661C16.3755 9.04111 16.3379 9.02801 16.3008 9.01361C14.4759 8.31791 12.8168 8.21361 11.8808 8.22661C10.0257 8.24511 8.5264 8.69091 7.6211 9.04691C7.5371 8.89751 5.8685 6.02591 5.5996 5.56051C5.55949 5.49201 5.51237 5.42786 5.459 5.36911C5.1278 5.00511 4.5536 4.88321 4.08 5.16611C3.605 5.44811 3.3664 6.10221 3.6914 6.66801C5.638 10.0376 3.5948 6.45221 5.6387 10.0273C5.6559 10.0583 5.1441 10.2915 4.2461 11.045C2.8987 12.176 0.452 14.772 0 18.9902H24C23.881 17.8794 23.6314 16.8912 23.2539 15.9219C22.5101 14.0101 21.4104 12.6291 20.5137 11.7383C19.869 11.0976 19.1542 10.5315 18.3828 10.0508C19.0422 8.92881 19.6948 7.79491 20.3477 6.66601C20.5554 6.30451 20.5363 5.87041 20.3398 5.54691C20.2504 5.3968 20.1265 5.27015 19.9785 5.17743C19.8304 5.08471 19.6624 5.02858 19.4883 5.01371C18.9658 4.96011 18.5491 5.32651 18.4395 5.55861ZM18.4004 14.0196C18.7948 14.6122 18.7244 15.3502 18.2441 15.6699C17.7642 15.9896 17.0561 15.7684 16.6621 15.1758C16.2677 14.5831 16.3381 13.8451 16.8184 13.5254C17.2911 13.2104 17.9996 13.4169 18.4004 14.0196ZM7.207 13.5273C7.6873 13.847 7.7576 14.585 7.3633 15.1777C6.9693 15.7703 6.2595 15.9915 5.7793 15.6718C5.2993 15.3521 5.229 14.6141 5.623 14.0214C6.0238 13.4193 6.7317 13.2108 7.207 13.5273Z" fill="#3DDC84"/>
</svg>
