<svg width="85" height="56" viewBox="0 0 85 56" fill="none" xmlns="http://www.w3.org/2000/svg">
<rect x="12" y="2" width="32" height="32" rx="16" fill="#5B75B3"/>
<g filter="url(#filter0_dd_18_183)">
<rect x="12" y="2" width="32" height="32" rx="16" fill="white" fill-opacity="0.01" shape-rendering="crispEdges"/>
</g>
<path d="M21.75 23.8333V12.1667C21.75 12.1667 21.75 12.4757 21.75 13.0938C21.75 13.7118 21.75 14.5139 21.75 15.5V20.5C21.75 21.4861 21.75 22.2882 21.75 22.9062C21.75 23.5243 21.75 23.8333 21.75 23.8333ZM21.75 25.5C21.2917 25.5 20.8993 25.3368 20.5729 25.0104C20.2465 24.684 20.0833 24.2917 20.0833 23.8333V12.1667C20.0833 11.7083 20.2465 11.316 20.5729 10.9896C20.8993 10.6632 21.2917 10.5 21.75 10.5H33.4167C33.875 10.5 34.2674 10.6632 34.5938 10.9896C34.9201 11.316 35.0833 11.7083 35.0833 12.1667V14.25H33.4167V12.1667H21.75V23.8333H33.4167V21.75H35.0833V23.8333C35.0833 24.2917 34.9201 24.684 34.5938 25.0104C34.2674 25.3368 33.875 25.5 33.4167 25.5H21.75ZM28.4167 22.1667C27.9583 22.1667 27.566 22.0035 27.2396 21.6771C26.9132 21.3507 26.75 20.9583 26.75 20.5V15.5C26.75 15.0417 26.9132 14.6493 27.2396 14.3229C27.566 13.9965 27.9583 13.8333 28.4167 13.8333H34.25C34.7083 13.8333 35.1007 13.9965 35.4271 14.3229C35.7535 14.6493 35.9167 15.0417 35.9167 15.5V20.5C35.9167 20.9583 35.7535 21.3507 35.4271 21.6771C35.1007 22.0035 34.7083 22.1667 34.25 22.1667H28.4167ZM34.25 20.5V15.5H28.4167V20.5H34.25ZM30.9167 19.25C31.2639 19.25 31.559 19.1285 31.8021 18.8854C32.0451 18.6424 32.1667 18.3472 32.1667 18C32.1667 17.6528 32.0451 17.3576 31.8021 17.1146C31.559 16.8715 31.2639 16.75 30.9167 16.75C30.5694 16.75 30.2743 16.8715 30.0313 17.1146C29.7882 17.3576 29.6667 17.6528 29.6667 18C29.6667 18.3472 29.7882 18.6424 30.0313 18.8854C30.2743 19.1285 30.5694 19.25 30.9167 19.25Z" fill="white"/>
<path d="M53.4 26V11.6H59.11C60.0811 11.6 60.8794 11.7956 61.505 12.1867C62.1305 12.5778 62.595 13.0761 62.8983 13.6817C63.2017 14.2872 63.3533 14.9122 63.3533 15.5567C63.3533 16.3555 63.1653 17.0303 62.7891 17.5808C62.413 18.1314 61.9011 18.5033 61.2533 18.6967L61.2466 18.2C62.1555 18.4067 62.8455 18.8358 63.3166 19.4875C63.7878 20.1392 64.0233 20.8833 64.0233 21.72C64.0233 22.5733 63.8603 23.3203 63.5342 23.9608C63.208 24.6014 62.7225 25.1014 62.0775 25.4608C61.4325 25.8203 60.6367 26 59.69 26H53.4ZM55.84 23.7267H59.39C59.8111 23.7267 60.1875 23.642 60.5192 23.4725C60.8508 23.3031 61.1117 23.0636 61.3017 22.7542C61.4917 22.4447 61.5867 22.0767 61.5867 21.65C61.5867 21.2622 61.5036 20.9147 61.3375 20.6075C61.1714 20.3003 60.9289 20.0561 60.61 19.875C60.2911 19.6939 59.9067 19.6033 59.4567 19.6033H55.84V23.7267ZM55.84 17.35H59.0767C59.4222 17.35 59.7325 17.2839 60.0075 17.1517C60.2825 17.0195 60.5006 16.8236 60.6617 16.5642C60.8228 16.3047 60.9034 15.9822 60.9034 15.5967C60.9034 15.0966 60.742 14.6811 60.4192 14.35C60.0964 14.0189 59.6489 13.8533 59.0767 13.8533H55.84V17.35ZM65.72 13.5633V11.35H68.1266V13.5633H65.72ZM65.72 26V15.2H68.1266V26H65.72ZM70.83 26V11.3H73.2366V26H70.83ZM75.94 26V11.3H78.3466V26H75.94ZM81.05 13.5633V11.35H83.4566V13.5633H81.05ZM81.05 26V15.2H83.4566V26H81.05Z" fill="white"/>
<defs>
<filter id="filter0_dd_18_183" x="0" y="0" width="56" height="56" filterUnits="userSpaceOnUse" color-interpolation-filters="sRGB">
<feFlood flood-opacity="0" result="BackgroundImageFix"/>
<feColorMatrix in="SourceAlpha" type="matrix" values="0 0 0 0 0 0 0 0 0 0 0 0 0 0 0 0 0 0 127 0" result="hardAlpha"/>
<feMorphology radius="4" operator="erode" in="SourceAlpha" result="effect1_dropShadow_18_183"/>
<feOffset dy="4"/>
<feGaussianBlur stdDeviation="3"/>
<feComposite in2="hardAlpha" operator="out"/>
<feColorMatrix type="matrix" values="0 0 0 0 0.356863 0 0 0 0 0.458824 0 0 0 0 0.701961 0 0 0 0.2 0"/>
<feBlend mode="normal" in2="BackgroundImageFix" result="effect1_dropShadow_18_183"/>
<feColorMatrix in="SourceAlpha" type="matrix" values="0 0 0 0 0 0 0 0 0 0 0 0 0 0 0 0 0 0 127 0" result="hardAlpha"/>
<feMorphology radius="3" operator="erode" in="SourceAlpha" result="effect2_dropShadow_18_183"/>
<feOffset dy="10"/>
<feGaussianBlur stdDeviation="7.5"/>
<feComposite in2="hardAlpha" operator="out"/>
<feColorMatrix type="matrix" values="0 0 0 0 0.356863 0 0 0 0 0.458824 0 0 0 0 0.701961 0 0 0 0.2 0"/>
<feBlend mode="normal" in2="effect1_dropShadow_18_183" result="effect2_dropShadow_18_183"/>
<feBlend mode="normal" in="SourceGraphic" in2="effect2_dropShadow_18_183" result="shape"/>
</filter>
</defs>
</svg>
