<svg width="56" height="56" viewBox="0 0 56 56" fill="none" xmlns="http://www.w3.org/2000/svg">
<rect width="56" height="56" rx="16" fill="#5B75B3" fill-opacity="0.1"/>
<path d="M28 39.25C26.4375 39.25 24.974 38.9531 23.6094 38.3594C22.2448 37.7656 21.0573 36.9635 20.0469 35.9531C19.0365 34.9427 18.2344 33.7552 17.6406 32.3906C17.0469 31.026 16.75 29.5625 16.75 28C16.75 26.4375 17.0469 24.974 17.6406 23.6094C18.2344 22.2448 19.0365 21.0573 20.0469 20.0469C21.0573 19.0365 22.2448 18.2344 23.6094 17.6406C24.974 17.0469 26.4375 16.75 28 16.75C29.7083 16.75 31.3281 17.1146 32.8594 17.8438C34.3906 18.5729 35.6875 19.6042 36.75 20.9375V18H39.25V25.5H31.75V23H35.1875C34.3333 21.8333 33.2812 20.9167 32.0312 20.25C30.7812 19.5833 29.4375 19.25 28 19.25C25.5625 19.25 23.4948 20.099 21.7969 21.7969C20.099 23.4948 19.25 25.5625 19.25 28C19.25 30.4375 20.099 32.5052 21.7969 34.2031C23.4948 35.901 25.5625 36.75 28 36.75C30.1875 36.75 32.099 36.0417 33.7344 34.625C35.3698 33.2083 36.3333 31.4167 36.625 29.25H39.1875C38.875 32.1042 37.651 34.4844 35.5156 36.3906C33.3802 38.2969 30.875 39.25 28 39.25ZM31.5 33.25L26.75 28.5V21.75H29.25V27.5L33.25 31.5L31.5 33.25Z" fill="#5B75B3"/>
</svg>
