<svg width="56" height="56" viewBox="0 0 56 56" fill="none" xmlns="http://www.w3.org/2000/svg">
<rect width="56" height="56" rx="16" fill="#5B75B3" fill-opacity="0.1"/>
<path d="M26.75 38C26.3958 38 26.099 37.8802 25.8594 37.6406C25.6198 37.401 25.5 37.1042 25.5 36.75V29.25L18.25 20C17.9375 19.5833 17.8906 19.1458 18.1094 18.6875C18.3281 18.2292 18.7083 18 19.25 18H36.75C37.2917 18 37.6719 18.2292 37.8906 18.6875C38.1094 19.1458 38.0625 19.5833 37.75 20L30.5 29.25V36.75C30.5 37.1042 30.3802 37.401 30.1406 37.6406C29.901 37.8802 29.6042 38 29.25 38H26.75ZM28 28.375L34.1875 20.5H21.8125L28 28.375Z" fill="#5B75B3"/>
</svg>
